<?xml version="1.0" encoding="iso-8859-1"?>
<!-- Generator: Adobe Illustrator 19.0.0, SVG Export Plug-In . SVG Version: 6.00 Build 0)  -->
<svg version="1.1" id="Layer_1" xmlns="http://www.w3.org/2000/svg" xmlns:xlink="http://www.w3.org/1999/xlink" x="0px" y="0px"
	 viewBox="0 0 512 512" style="enable-background:new 0 0 512 512;" xml:space="preserve">
<g transform="translate(1 1)">
	<polygon style="fill:#FFE100;" points="7.533,502.467 502.467,502.467 502.467,451.267 7.533,451.267 	"/>
	<g>
		<polygon style="fill:#FFA800;" points="7.533,109.933 161.133,109.933 161.133,75.8 7.533,75.8 		"/>
		<polygon style="fill:#FFA800;" points="152.6,41.667 357.4,41.667 357.4,7.533 152.6,7.533 		"/>
		<polygon style="fill:#FFA800;" points="348.867,178.2 502.467,178.2 502.467,144.067 348.867,144.067 		"/>
	</g>
	<polygon style="fill:#FFFFFF;" points="16.067,451.267 161.133,451.267 161.133,109.933 16.067,109.933 	"/>
	<polygon style="fill:#FFE100;" points="41.667,451.267 186.733,451.267 186.733,109.933 41.667,109.933 	"/>
	<polygon style="fill:#FFA800;" points="348.867,451.267 493.933,451.267 493.933,178.2 348.867,178.2 	"/>
	<polygon style="fill:#FFE100;" points="323.267,451.267 468.333,451.267 468.333,178.2 323.267,178.2 	"/>
	<g>
		<polygon style="fill:#63D3FD;" points="50.2,178.2 92.867,178.2 92.867,144.067 50.2,144.067 		"/>
		<polygon style="fill:#63D3FD;" points="127,178.2 161.133,178.2 161.133,144.067 127,144.067 		"/>
		<polygon style="fill:#63D3FD;" points="50.2,246.467 92.867,246.467 92.867,212.333 50.2,212.333 		"/>
		<polygon style="fill:#63D3FD;" points="127,246.467 161.133,246.467 161.133,212.333 127,212.333 		"/>
		<polygon style="fill:#63D3FD;" points="50.2,314.733 92.867,314.733 92.867,280.6 50.2,280.6 		"/>
		<polygon style="fill:#63D3FD;" points="127,314.733 161.133,314.733 161.133,280.6 127,280.6 		"/>
		<polygon style="fill:#63D3FD;" points="50.2,383 92.867,383 92.867,348.867 50.2,348.867 		"/>
		<polygon style="fill:#63D3FD;" points="127,383 161.133,383 161.133,348.867 127,348.867 		"/>
	</g>
	<polygon style="fill:#FFE100;" points="161.133,451.267 348.867,451.267 348.867,41.667 161.133,41.667 	"/>
	<g>
		<polygon style="fill:#63D3FD;" points="348.867,246.467 383,246.467 383,212.333 348.867,212.333 		"/>
		<polygon style="fill:#63D3FD;" points="417.133,246.467 459.8,246.467 459.8,212.333 417.133,212.333 		"/>
		<polygon style="fill:#63D3FD;" points="348.867,314.733 383,314.733 383,280.6 348.867,280.6 		"/>
		<polygon style="fill:#63D3FD;" points="417.133,314.733 459.8,314.733 459.8,280.6 417.133,280.6 		"/>
		<polygon style="fill:#63D3FD;" points="348.867,383 383,383 383,348.867 348.867,348.867 		"/>
		<polygon style="fill:#63D3FD;" points="417.133,383 459.8,383 459.8,348.867 417.133,348.867 		"/>
		<polygon style="fill:#63D3FD;" points="195.267,109.933 237.933,109.933 237.933,75.8 195.267,75.8 		"/>
		<polygon style="fill:#63D3FD;" points="272.067,109.933 314.733,109.933 314.733,75.8 272.067,75.8 		"/>
		<polygon style="fill:#63D3FD;" points="195.267,178.2 237.933,178.2 237.933,144.067 195.267,144.067 		"/>
		<polygon style="fill:#63D3FD;" points="272.067,178.2 314.733,178.2 314.733,144.067 272.067,144.067 		"/>
		<polygon style="fill:#63D3FD;" points="195.267,246.467 237.933,246.467 237.933,212.333 195.267,212.333 		"/>
		<polygon style="fill:#63D3FD;" points="272.067,246.467 314.733,246.467 314.733,212.333 272.067,212.333 		"/>
		<polygon style="fill:#63D3FD;" points="195.267,314.733 237.933,314.733 237.933,280.6 195.267,280.6 		"/>
		<polygon style="fill:#63D3FD;" points="272.067,314.733 314.733,314.733 314.733,280.6 272.067,280.6 		"/>
		<polygon style="fill:#63D3FD;" points="195.267,383 237.933,383 237.933,348.867 195.267,348.867 		"/>
		<polygon style="fill:#63D3FD;" points="272.067,383 314.733,383 314.733,348.867 272.067,348.867 		"/>
	</g>
	<path d="M502.467,511H7.533C2.413,511-1,507.587-1,502.467v-51.2c0-5.12,3.413-8.533,8.533-8.533h494.933
		c5.12,0,8.533,3.413,8.533,8.533v51.2C511,507.587,507.587,511,502.467,511z M16.067,493.933h477.867V459.8H16.067V493.933z"/>
	<path d="M161.133,459.8H16.067c-5.12,0-8.533-3.413-8.533-8.533V109.933c0-5.12,3.413-8.533,8.533-8.533h145.067
		c5.12,0,8.533,3.413,8.533,8.533v341.333C169.667,456.387,166.253,459.8,161.133,459.8z M24.6,442.733h128V118.467h-128V442.733z"
		/>
	<path d="M493.933,459.8H348.867c-5.12,0-8.533-3.413-8.533-8.533V178.2c0-5.12,3.413-8.533,8.533-8.533h145.067
		c5.12,0,8.533,3.413,8.533,8.533v273.067C502.467,456.387,499.053,459.8,493.933,459.8z M357.4,442.733h128v-256h-128V442.733z"/>
	<path d="M348.867,459.8H161.133c-5.12,0-8.533-3.413-8.533-8.533v-409.6c0-5.12,3.413-8.533,8.533-8.533h187.733
		c5.12,0,8.533,3.413,8.533,8.533v409.6C357.4,456.387,353.987,459.8,348.867,459.8z M169.667,442.733h170.667V50.2H169.667V442.733
		z"/>
	<path d="M237.933,118.467h-42.667c-5.12,0-8.533-3.413-8.533-8.533V75.8c0-5.12,3.413-8.533,8.533-8.533h42.667
		c5.12,0,8.533,3.413,8.533,8.533v34.133C246.467,115.053,243.053,118.467,237.933,118.467z M203.8,101.4h25.6V84.333h-25.6V101.4z"
		/>
	<path d="M314.733,118.467h-42.667c-5.12,0-8.533-3.413-8.533-8.533V75.8c0-5.12,3.413-8.533,8.533-8.533h42.667
		c5.12,0,8.533,3.413,8.533,8.533v34.133C323.267,115.053,319.853,118.467,314.733,118.467z M280.6,101.4h25.6V84.333h-25.6V101.4z"
		/>
	<path d="M237.933,186.733h-42.667c-5.12,0-8.533-3.413-8.533-8.533v-34.133c0-5.12,3.413-8.533,8.533-8.533h42.667
		c5.12,0,8.533,3.413,8.533,8.533V178.2C246.467,183.32,243.053,186.733,237.933,186.733z M203.8,169.667h25.6V152.6h-25.6V169.667z
		"/>
	<path d="M314.733,186.733h-42.667c-5.12,0-8.533-3.413-8.533-8.533v-34.133c0-5.12,3.413-8.533,8.533-8.533h42.667
		c5.12,0,8.533,3.413,8.533,8.533V178.2C323.267,183.32,319.853,186.733,314.733,186.733z M280.6,169.667h25.6V152.6h-25.6V169.667z
		"/>
	<path d="M237.933,255h-42.667c-5.12,0-8.533-3.413-8.533-8.533v-34.133c0-5.12,3.413-8.533,8.533-8.533h42.667
		c5.12,0,8.533,3.413,8.533,8.533v34.133C246.467,251.587,243.053,255,237.933,255z M203.8,237.933h25.6v-17.067h-25.6V237.933z"/>
	<path d="M314.733,255h-42.667c-5.12,0-8.533-3.413-8.533-8.533v-34.133c0-5.12,3.413-8.533,8.533-8.533h42.667
		c5.12,0,8.533,3.413,8.533,8.533v34.133C323.267,251.587,319.853,255,314.733,255z M280.6,237.933h25.6v-17.067h-25.6V237.933z"/>
	<path d="M237.933,323.267h-42.667c-5.12,0-8.533-3.413-8.533-8.533V280.6c0-5.12,3.413-8.533,8.533-8.533h42.667
		c5.12,0,8.533,3.413,8.533,8.533v34.133C246.467,319.853,243.053,323.267,237.933,323.267z M203.8,306.2h25.6v-17.067h-25.6V306.2z
		"/>
	<path d="M314.733,323.267h-42.667c-5.12,0-8.533-3.413-8.533-8.533V280.6c0-5.12,3.413-8.533,8.533-8.533h42.667
		c5.12,0,8.533,3.413,8.533,8.533v34.133C323.267,319.853,319.853,323.267,314.733,323.267z M280.6,306.2h25.6v-17.067h-25.6V306.2z
		"/>
	<path d="M237.933,391.533h-42.667c-5.12,0-8.533-3.413-8.533-8.533v-34.133c0-5.12,3.413-8.533,8.533-8.533h42.667
		c5.12,0,8.533,3.413,8.533,8.533V383C246.467,388.12,243.053,391.533,237.933,391.533z M203.8,374.467h25.6V357.4h-25.6V374.467z"
		/>
	<path d="M314.733,391.533h-42.667c-5.12,0-8.533-3.413-8.533-8.533v-34.133c0-5.12,3.413-8.533,8.533-8.533h42.667
		c5.12,0,8.533,3.413,8.533,8.533V383C323.267,388.12,319.853,391.533,314.733,391.533z M280.6,374.467h25.6V357.4h-25.6V374.467z"
		/>
	<path d="M92.867,186.733H50.2c-5.12,0-8.533-3.413-8.533-8.533v-34.133c0-5.12,3.413-8.533,8.533-8.533h42.667
		c5.12,0,8.533,3.413,8.533,8.533V178.2C101.4,183.32,97.987,186.733,92.867,186.733z M58.733,169.667h25.6V152.6h-25.6V169.667z"/>
	<path d="M161.133,186.733H127c-5.12,0-8.533-3.413-8.533-8.533v-34.133c0-5.12,3.413-8.533,8.533-8.533h34.133
		c5.12,0,8.533,3.413,8.533,8.533V178.2C169.667,183.32,166.253,186.733,161.133,186.733z M135.533,169.667H152.6V152.6h-17.067
		V169.667z"/>
	<path d="M92.867,255H50.2c-5.12,0-8.533-3.413-8.533-8.533v-34.133c0-5.12,3.413-8.533,8.533-8.533h42.667
		c5.12,0,8.533,3.413,8.533,8.533v34.133C101.4,251.587,97.987,255,92.867,255z M58.733,237.933h25.6v-17.067h-25.6V237.933z"/>
	<path d="M161.133,255H127c-5.12,0-8.533-3.413-8.533-8.533v-34.133c0-5.12,3.413-8.533,8.533-8.533h34.133
		c5.12,0,8.533,3.413,8.533,8.533v34.133C169.667,251.587,166.253,255,161.133,255z M135.533,237.933H152.6v-17.067h-17.067V237.933
		z"/>
	<path d="M92.867,323.267H50.2c-5.12,0-8.533-3.413-8.533-8.533V280.6c0-5.12,3.413-8.533,8.533-8.533h42.667
		c5.12,0,8.533,3.413,8.533,8.533v34.133C101.4,319.853,97.987,323.267,92.867,323.267z M58.733,306.2h25.6v-17.067h-25.6V306.2z"/>
	<path d="M161.133,323.267H127c-5.12,0-8.533-3.413-8.533-8.533V280.6c0-5.12,3.413-8.533,8.533-8.533h34.133
		c5.12,0,8.533,3.413,8.533,8.533v34.133C169.667,319.853,166.253,323.267,161.133,323.267z M135.533,306.2H152.6v-17.067h-17.067
		V306.2z"/>
	<path d="M92.867,391.533H50.2c-5.12,0-8.533-3.413-8.533-8.533v-34.133c0-5.12,3.413-8.533,8.533-8.533h42.667
		c5.12,0,8.533,3.413,8.533,8.533V383C101.4,388.12,97.987,391.533,92.867,391.533z M58.733,374.467h25.6V357.4h-25.6V374.467z"/>
	<path d="M161.133,391.533H127c-5.12,0-8.533-3.413-8.533-8.533v-34.133c0-5.12,3.413-8.533,8.533-8.533h34.133
		c5.12,0,8.533,3.413,8.533,8.533V383C169.667,388.12,166.253,391.533,161.133,391.533z M135.533,374.467H152.6V357.4h-17.067
		V374.467z"/>
	<path d="M383,255h-34.133c-5.12,0-8.533-3.413-8.533-8.533v-34.133c0-5.12,3.413-8.533,8.533-8.533H383
		c5.12,0,8.533,3.413,8.533,8.533v34.133C391.533,251.587,388.12,255,383,255z M357.4,237.933h17.067v-17.067H357.4V237.933z"/>
	<path d="M459.8,255h-42.667c-5.12,0-8.533-3.413-8.533-8.533v-34.133c0-5.12,3.413-8.533,8.533-8.533H459.8
		c5.12,0,8.533,3.413,8.533,8.533v34.133C468.333,251.587,464.92,255,459.8,255z M425.667,237.933h25.6v-17.067h-25.6V237.933z"/>
	<path d="M383,323.267h-34.133c-5.12,0-8.533-3.413-8.533-8.533V280.6c0-5.12,3.413-8.533,8.533-8.533H383
		c5.12,0,8.533,3.413,8.533,8.533v34.133C391.533,319.853,388.12,323.267,383,323.267z M357.4,306.2h17.067v-17.067H357.4V306.2z"/>
	<path d="M459.8,323.267h-42.667c-5.12,0-8.533-3.413-8.533-8.533V280.6c0-5.12,3.413-8.533,8.533-8.533H459.8
		c5.12,0,8.533,3.413,8.533,8.533v34.133C468.333,319.853,464.92,323.267,459.8,323.267z M425.667,306.2h25.6v-17.067h-25.6V306.2z"
		/>
	<path d="M383,391.533h-34.133c-5.12,0-8.533-3.413-8.533-8.533v-34.133c0-5.12,3.413-8.533,8.533-8.533H383
		c5.12,0,8.533,3.413,8.533,8.533V383C391.533,388.12,388.12,391.533,383,391.533z M357.4,374.467h17.067V357.4H357.4V374.467z"/>
	<path d="M459.8,391.533h-42.667c-5.12,0-8.533-3.413-8.533-8.533v-34.133c0-5.12,3.413-8.533,8.533-8.533H459.8
		c5.12,0,8.533,3.413,8.533,8.533V383C468.333,388.12,464.92,391.533,459.8,391.533z M425.667,374.467h25.6V357.4h-25.6V374.467z"/>
	<path d="M161.133,118.467H7.533c-5.12,0-8.533-3.413-8.533-8.533V75.8c0-5.12,3.413-8.533,8.533-8.533h153.6
		c5.12,0,8.533,3.413,8.533,8.533v34.133C169.667,115.053,166.253,118.467,161.133,118.467z M16.067,101.4H152.6V84.333H16.067
		V101.4z"/>
	<path d="M357.4,50.2H152.6c-5.12,0-8.533-3.413-8.533-8.533V7.533c0-5.12,3.413-8.533,8.533-8.533h204.8
		c5.12,0,8.533,3.413,8.533,8.533v34.133C365.933,46.787,362.52,50.2,357.4,50.2z M161.133,33.133h187.733V16.067H161.133V33.133z"
		/>
	<path d="M502.467,186.733h-153.6c-5.12,0-8.533-3.413-8.533-8.533v-34.133c0-5.12,3.413-8.533,8.533-8.533h153.6
		c5.12,0,8.533,3.413,8.533,8.533V178.2C511,183.32,507.587,186.733,502.467,186.733z M357.4,169.667h136.533V152.6H357.4V169.667z"
		/>
</g>
<g>
</g>
<g>
</g>
<g>
</g>
<g>
</g>
<g>
</g>
<g>
</g>
<g>
</g>
<g>
</g>
<g>
</g>
<g>
</g>
<g>
</g>
<g>
</g>
<g>
</g>
<g>
</g>
<g>
</g>
</svg>
